<svg xmlns="http://www.w3.org/2000/svg" viewBox="0 0 110.91 43.37"><title>Airplanes</title><g id="Layer_2" data-name="Layer 2"><g id="Layer_1-2" data-name="Layer 1"><path id="Air1" d="M27.23,40.47l-12,2.9-3-.08-2-.91,8.62-3.07-15-3.56-2.16.12L0,35.67l2.17-.92-.46-1.08.92-3.61.67-.56.61.06.74.61.78,1.61.84,1,.84,1L9.32,33l.65.24-1.83.64,1.31.48,1.41.06,8.13-1,2.72-.26,1.45.25,1,.94,3.24.22L31,33l2.48.4-1.61,2.38,2.67.35,1.5.44.46.29a8.91,8.91,0,0,1,2.15,1.47,1.33,1.33,0,0,1-.11,1.22s-1.5.36-1.64.6-1,0-1,0l-.24.66a2.3,2.3,0,0,0-1,0,15.21,15.21,0,0,1-2.16.12s-2-.11-2.2-.07S27.23,40.47,27.23,40.47Z"/><path id="Air1-2" data-name="Air1" d="M66.23,23.47l-12,2.9-3-.08-2-.91,8.62-3.07-15-3.56-2.16.12L39,18.67l2.17-.92-.46-1.08.92-3.61.67-.56.61.06.74.61.78,1.61.84,1,.84,1L48.32,16l.65.24-1.83.64,1.31.48,1.41.06L58,16.5l2.72-.26,1.45.25,1,.94,3.24.22L70,16l2.48.4-1.61,2.38,2.67.35,1.5.44.46.29a8.91,8.91,0,0,1,2.15,1.47,1.33,1.33,0,0,1-.11,1.22s-1.5.36-1.64.6-1,0-1,0l-.24.66a2.3,2.3,0,0,0-1,0,15.21,15.21,0,0,1-2.16.12s-2-.11-2.2-.07S66.23,23.47,66.23,23.47Z"/><path id="Air1-3" data-name="Air1" d="M101.14,9.71,91,12.16l-2.55-.08-1.71-.81L94,8.65,81.25,5.45l-1.83.09L78,5.36l1.83-.79-.4-1L80.23.48,80.78,0l.52.05.64.54L82.61,2l.71.88.72.87,1.87-.63.56.22-1.56.54L86,4.3l1.19.06,6.88-.78,2.31-.21,1.23.23.88.83,2.74.21,3-1.42,2.11.36L105,5.64l2.27.33,1.27.39.4.25a7.72,7.72,0,0,1,1.83,1.3A1.19,1.19,0,0,1,110.72,9a5,5,0,0,0-1.39.51c-.12.2-.83,0-.83,0l-.2.57a2.09,2.09,0,0,0-.84,0,11.18,11.18,0,0,1-1.83.09s-1.71-.11-1.87-.07S101.14,9.71,101.14,9.71Z"/></g></g></svg>