<?xml version="1.0" encoding="utf-8"?>
<!-- Generator: Adobe Illustrator 22.1.0, SVG Export Plug-In . SVG Version: 6.00 Build 0)  -->
<svg version="1.1" id="Layer_1" xmlns="http://www.w3.org/2000/svg" xmlns:xlink="http://www.w3.org/1999/xlink" x="0px" y="0px"
	 viewBox="0 0 1000 3501.5" style="enable-background:new 0 0 1000 3501.5;" xml:space="preserve">
<g id="flags">
	
		<image style="overflow:visible;" width="1280" height="640" xlink:href="1280px-Flag_of_the_United_Kingdom.svg.png"  transform="matrix(0.7812 0 0 0.9119 0 0)">
	</image>
	
		<image style="overflow:visible;" width="1280" height="674" xlink:href="1280px-Flag_of_the_United_States.svg.png"  transform="matrix(0.7812 0 0 0.8659 0 583.5897)">
	</image>
	
		<image style="overflow:visible;" width="2000" height="1333" xlink:href="italy.png"  transform="matrix(0.5 0 0 0.4378 0 1750.7693)">
	</image>
	
		<image style="overflow:visible;" width="2000" height="1200" xlink:href="Nazi.png"  transform="matrix(0.5 0 0 0.4863 0 2334.3589)">
	</image>
	
		<image style="overflow:visible;" width="1280" height="674" xlink:href="1280px-Flag_of_the_United_States.svg.png"  transform="matrix(0.7812 0 0 0.8659 0 2917.9487)">
	</image>
	
		<image style="overflow:visible;" width="2000" height="1000" xlink:href="Flag_of_the_Soviet_Union.png"  transform="matrix(0.5 0 0 0.5836 0 1167.1794)">
	</image>
</g>
<g id="winston.psd_1_">
	
		<image style="overflow:visible;" width="522" height="361" id="Layer_1_2_" xlink:href="3C8F3592182FA2BE.png"  transform="matrix(1.3531 0 0 1.3531 146.8464 96.7179)">
	</image>
</g>
<g id="franklin.psd_1_">
	
		<image style="overflow:visible;" width="761" height="604" id="Layer_1_3_" xlink:href="3C8F3592182FA2B2.png"  transform="matrix(0.8002 0 0 0.8002 294.6007 683.8449)">
	</image>
</g>
<g id="stalin.psd_1_">
	
		<image style="overflow:visible;" width="1077" height="1161" id="Layer_1_4_" xlink:href="3C8F3592182FA2B1.png"  transform="matrix(0.4636 0 0 0.4636 342.5983 1212.5548)">
	</image>
</g>
<g id="Mussolini.psd_1_">
	
		<image style="overflow:visible;" width="1008" height="436" id="Layer_1_5_" xlink:href="C0B2BE1D7EE28405.png"  transform="matrix(0.861 0 0 0.861 89.111 1958.9614)">
	</image>
</g>
<g id="hitler.psd_1_">
	
		<image style="overflow:visible;" width="435" height="382" id="Layer_1_6_" xlink:href="C0B2BE1D7EE2841B.png"  transform="matrix(1.3137 0 0 1.3137 377.5946 2416.1047)">
	</image>
</g>
<g id="enis.psd_1_">
	
		<image style="overflow:visible;" width="527" height="498" id="Layer_1_7_" xlink:href="C0B2BE1D7EE2841D.png"  transform="matrix(1.1857 0 0 1.1719 353.0978 2916.9487)">
	</image>
</g>
</svg>
