<?xml version="1.0" encoding="utf-8"?>
<!-- Generator: Adobe Illustrator 22.1.0, SVG Export Plug-In . SVG Version: 6.00 Build 0)  -->
<svg version="1.1" id="Layer_1" xmlns="http://www.w3.org/2000/svg" xmlns:xlink="http://www.w3.org/1999/xlink" x="0px" y="0px"
	 viewBox="0 0 8192 1080" style="enable-background:new 0 0 8192 1080;" xml:space="preserve">
<style type="text/css">
	.st0{fill:#8C6239;}
	.st1{fill:#808080;}
	.st2{fill:#F2F2F2;}
	.st3{fill:none;stroke:#1A1A1A;stroke-width:23;stroke-miterlimit:10;}
	.st4{fill:#666666;}
	.st5{fill:#4D4D4D;}
	.st6{fill:#FFFFFF;}
	.st7{fill:#DF000E;}
	.st8{fill:#FF0000;}
	.st9{fill:#754C24;}
</style>
<g>
	
		<image style="overflow:visible;enable-background:new    ;" width="1280" height="640" xlink:href="1280px-Flag_of_the_United_Kingdom.svg.png"  transform="matrix(1.0417 0 0 1.2518 0 141.6349)">
	</image>
	<g>
		<path d="M579.7,477.9c-29-145.1,121.6-166.3,121.6-166.3c139.5-17.9,144,254.4,144,254.4c-8.9,23.4,0,48,0,48
			c14.5-4.5,40.2,22.3,40.2,22.3C997,612.9,1103,705.5,1103,705.5c36.8,16.7,42.4,104.9,42.4,104.9c33.5,23.4,58,131.6,58,131.6
			H386.6c-157.3-22.2-238.8-81.4-238.8-81.4L130,837.2c-5.6-154,209.8-386.1,209.8-386.1l7.8-127.2c1.1-22.3,21.2-26.8,21.2-26.8
			v-15.6c-1.1-12.3,24.6-16.7,24.6-16.7l-14.5-98.2c-5.6-22.3,14.5-12.3,14.5-12.3c19,13.4,39.1,133.9,39.1,133.9
			c6.7,20.1,23.4-14.5,23.4-14.5c0-16.7,26.8-53.6,26.8-53.6c-2.2-21.2,13.4-41.3,13.4-41.3c22.3-1.1,14.5,39.1,14.5,39.1
			c-2.2,53.6-32.4,100.4-32.4,100.4c6.7,63.6-15.6,128.3-15.6,128.3c0,30.1-54.7,84.8-54.7,84.8c2.2,32.4-77,218.7-77,218.7
			c24.6-37.9,132.8-85.9,132.8-85.9c25.7-12.3,114.9-7.8,114.9-7.8c13.4-20.1,35.7-15.6,35.7-15.6c7.8-10,15.6-10,15.6-10
			c1.1-16.7-12.3-33.5-12.3-33.5c-1.1-8.9-15.6-10-15.6-10c1.1-20.1-8.9-34.6-8.9-34.6c-8.9-11.2,0-26.8,0-26.8l-16.7-37.9
			C573,475.6,579.7,477.9,579.7,477.9z"/>
		<path class="st0" d="M740.4,564.1c7.4,10.4,13.9,58.5,13.9,58.5c-1,21.8,19.9,21.8,19.9,21.8c18.4-6,11.4-26.3,11.4-26.3l-21.9-61
			C752.9,544.8,740.4,564.1,740.4,564.1z"/>
		<path class="st1" d="M783.6,628.8c0.2,7.4-7.7,14.1-13.2,14.1s-8.6-6.5-10-14.1c-1.7-9.2,4.5-14.1,10-14.1
			C775.9,614.7,783.3,620,783.6,628.8z"/>
		<path class="st2" d="M830.3,628.8c11.9,26.1-28.3,315.5-28.3,315.5h-49.1C741,885.6,666.6,707,666.6,707c26.8-1.5,67,35.7,67,35.7
			l23.8-3C799.1,721.9,830.3,628.8,830.3,628.8z"/>
	</g>
	
		<image style="overflow:visible;enable-background:new    ;" width="2000" height="1000" xlink:href="Flag_of_the_Soviet_Union.png"  transform="matrix(0.6666 0 0 0.8035 1333.3108 138.2709)">
	</image>
	<g>
		<path d="M2245.5,524.5c0,11.2,30.1,54.7,30.1,54.7c77,12.3,180.8,109.4,180.8,109.4c25.7,34.6,33.5,96,33.5,96l26.8,126.1v36.8
			h-769.1c4.5-31.2,13.8-170.2,13.8-170.2c-132.3,44.1-311.3,38.6-311.3,38.6c-66.1-49.6-21.4-191.9-21.4-191.9
			c106.8-147.1,173-155.1,173-155.1c20.1-45.8,87-81.5,87-81.5h27.9c10-11.2,37.9-11.2,37.9-11.2c15.6-8.9,43.5-8.9,43.5-8.9
			c4.5,5.6,5.6,13.4,5.6,13.4l42.4-49.1c11.2-16.7,23.4,0,23.4,0c-2.2,32.4-70.3,106-70.3,106c16.7-4.5,35.7,3.3,35.7,3.3
			c-12.3,12.3-12.3,35.7-12.3,35.7c-8.9,21.2-75.9,48-75.9,48c-12.3,2.2-40.2,6.7-40.2,6.7c3.3,40.2-16.7,74.8-16.7,74.8
			c-16.7,10-51.3,29.8-51.3,29.8c25.7-4.1,147.7-37.6,147.7-37.6c50.2-21.2,189.3-13.3,189.3-13.3c32.4-10,54.7-60.3,54.7-60.3
			c-14.5-20.1-28.9-72.5-28.9-72.5c-15.8-40.2,14.4-83.7,14.4-83.7c8.9-22.3,2.2-60.3,2.2-60.3c12.3-61.4,84.8-89.3,84.8-89.3
			c106-27.9,189.7,54.7,189.7,54.7c39.1,88.2-4.5,177.4-4.5,177.4c-8.9,20.1-35.7,29-35.7,29L2245.5,524.5z"/>
		<g>
			<path class="st3" d="M1705.6,941.7l14.5-176.2l313.6,14.5l13.4-14.5c20.1-36.8,11.2-225.5,11.2-225.5l-12.3,2.2l-656.2-24.5
				c-25.7,6.7-30.1,73.7-30.1,73.7l-6.2,158.5c0,13.4,123.4,12.3,123.4,12.3l199.7,4.5l-8.9,175.1H1705.6z"/>
			<polygon class="st4" points="1768.1,562.4 1750.2,717.5 1981.2,729.7 2005.7,572.4 			"/>
			<polygon class="st4" points="1647.5,572.4 1630.8,719.7 1379.7,708.6 1394.2,555.7 			"/>
			
				<rect x="1602.9" y="834.1" transform="matrix(6.081336e-02 -0.9981 0.9981 6.081336e-02 743.2427 2486.1187)" class="st5" width="179.7" height="28"/>
		</g>
	</g>
	
		<image style="overflow:visible;enable-background:new    ;" width="1280" height="674" xlink:href="1280px-Flag_of_the_United_States.svg.png"  transform="matrix(1.0592 0 0 1.1879 2666.6216 139.6679)">
	</image>
	
		<image style="overflow:visible;enable-background:new    ;" width="1280" height="674" xlink:href="1280px-Flag_of_the_United_States.svg.png"  transform="matrix(1.0592 0 0 1.1879 4022.3887 139.6679)">
	</image>
	<g>
		<path d="M3380.6,502.7c4.4-10.4,0-45,0-45c-8.9-4.6-8.9-15-8.9-15c1.1-13.8-7.7-23.1-7.7-23.1c3.3-8.1-5.5-18.4-5.5-18.4
			c-2.2-19.6,0-31.2,0-31.2c2.2-9.2,11.5,0,11.5,0c-19.3-57.7,0-102.7,0-102.7c48.1-77.4,122-56.6,122-56.6
			c72.8,8.1,81.7,83.2,81.7,83.2c14.4,67-6.6,115.5-6.6,115.5c6.6,56.6-13.2,101.6-13.2,101.6h11c68.4,5.8,130.3,48.5,130.3,48.5
			c12.1,13.8,18.7,50.8,18.7,50.8l-7.7,11.5c46.3,32.4,136.9,206.7,136.9,206.7c25.4,68.1,15.4,117.1,15.4,117.1h-430.1l11.8,5.3
			h-405.1c-24.3-30-8.9-85.4-8.9-85.4c45.2-101.6,155.6-233.2,155.6-233.2c1.1-20.8,10-42.7,10-42.7c0-25.4,16.6-34.7,16.6-34.7
			c14.4-18.4,112.6-38.1,112.6-38.1l46.3-27.7L3380.6,502.7z"/>
		<path class="st6" d="M3428.5,935.4l44.3-129.4c87.3,70.3,289.3,82.6,289.3,82.6v8.9l10,4.5c-26.8,14.5-44.6,43.4-44.6,43.4h-299.1
			V935.4z"/>
		<path class="st5" d="M3333.1,949.7v-58V847c27.5-10.4,47.6-58.8,47.6-58.8c-3-73.7-53.6-85.6-53.6-85.6
			c-35.7-8.2-61.7,23.8-61.7,23.8c-27.5,15.6-25.3,70.7-25.3,70.7c14.1,41.7,70.3,55.8,70.3,55.8v99.2L3333.1,949.7z"/>
	</g>
	<g>
		<path d="M5025,397.5l196.4,107.1c31.2,31.2,22.3,80.3,22.3,80.3c25.3,22.3,14.9,107.1,14.9,107.1c40.2,83.3,31.2,252.9,31.2,252.9
			c-32.7,47.6-364.5,7.4-364.5,7.4c3-10.4-14.9-16.4-14.9-16.4l-139.9-3l-69.9-1.5c-2.2,6-8.9,11.9-8.9,11.9
			c-3.7,8.9-14.1-6.7-14.1-6.7c0,14.1-23.8,23.8-23.8,23.8l-18.6-8.2c-3.7,8.9-35,5.2-35,5.2c-6,5.2-37.9-11.2-37.9-11.2l-18.6-20.1
			c-6-9.7,5.2-26,5.2-26l-14.1-13.4c-2.2,22.3-40.2,25.3-40.2,25.3c-1.5-35.7,44.6-131.7,44.6-131.7c20.1-38.7,46.1-62.5,46.1-62.5
			c-0.7-16.4,6-46.1,6-46.1c11.9-29.8,34.2-32,34.2-32c-6.7-26.8,13.4-49.1,13.4-49.1c0.7-20.1,23.8-35,23.8-35l6-44.6
			c17.9-33.5,58-67,58-67c21.6-12.1,122.2-33,122.2-33c-8.9-14.9-9.4-43.1-9.4-43.1c-12.4-1-14.9-17.3-14.9-17.3
			c-16.4-14.4-22.3-50.6-22.3-50.6c-2.5-17.9,13.9-13.9,13.9-13.9c-10.4-93.7,17.3-115.1,17.3-115.1
			c24.8-30.7,142.8-28.3,142.8-28.3c41.7,7.4,57.1,71.4,57.1,71.4c11.4,26.3,5,55.6,5,55.6c12.4-6.9,9.4,21.4,9.4,21.4
			c2,15.4-12.4,38.7-12.4,38.7c5,17.3-8.9,21.4-8.9,21.4C5032.9,367.3,5025,397.5,5025,397.5z"/>
		<path class="st6" d="M5007.4,401.3c4.8,61.7-113.6,230.6-113.6,230.6c-29.8-45.4-37.9-209-37.9-209c17.7,39.4,48.4,58,48.4,58
			c33.8-0.7,87.9-53.6,87.9-53.6C5001.8,418.4,5007.4,401.3,5007.4,401.3z"/>
	</g>
	<g>
		<g>
			<rect x="5378.2" y="139.7" class="st7" width="1407.2" height="810.2"/>
			<ellipse class="st6" cx="6081.8" cy="544.8" rx="345.4" ry="334.7"/>
			<polygon points="6018.1,544.6 5894.6,446.7 6081.5,296.9 6143.9,349 6019.2,446.7 6081.5,495 6204.9,395.4 6393.1,544.6 
				6329,595.6 6203.9,495 6143.9,544.6 6267,643.9 6081.5,792.6 6016.7,741.4 6143.9,643.9 6081.5,595.6 5957.6,693.1 5770.5,544.6 
				5832.5,493.9 5957.6,594.5 			"/>
		</g>
		<g>
			<path d="M6521.9,476v14.4l21,26.5l83.2,33l9.7,9.3c48,93.8,33.7,270.6,33.7,270.6l-46.4,111h-127.4h-235.3l30-94.6l28.5-73.1
				l12-38.7c-14.2-15-12-94.6-12-94.6l-177.7-46.5c-25.4-10-26.3-57.3-26.3-57.3l10.5-154.7h33c10.5-19.3-0.7-75.9-0.7-75.9
				c-3-11.5,11.2-13.6,11.2-13.6l32.2-15c14.2,1.4,9.7,16.4,9.7,16.4l12.7-2.2c12,6.5,3.7,27.2,3.7,27.2l-3.7,15.8
				c0.7,17.9-22.5,32.2-22.5,32.2l-2.2,14.4l10.5,3.6l-3,74.5l-6,22.2c0,19.3,19.5,44.4,19.5,44.4c40.5-5,98.9,17.2,98.9,17.2
				l33.8-9.3l40.7,1.4l19.3-11.5l4.5-15.8c-23.2-9.3-23.7-35.8-23.7-35.8c5-15-7.7-42.3-7.7-42.3c-4.5-7.1-0.7-15-0.7-15
				c-4.5-5.7-3.7-15.8-3.7-15.8l6-4.3l-0.7-13.6l27.7-40.1c-0.7-11.5,28.5-23.7,28.5-23.7c51-7.9,87.6,33.6,87.6,33.6
				c24,33.6,20.2,81.6,20.2,81.6C6544.4,446.6,6521.9,476,6521.9,476z"/>
			<path class="st8" d="M6558.6,678.7c15.8-5.7,61.4,0,61.4,0l49.7,34.4l1.7,79.5c-21.4-23.7-73.9-38.7-73.9-38.7c-17.3-5-51,5-51,5
				L6558.6,678.7z"/>
			<path class="st6" d="M6654.3,729c5.5,30.7-7.4,39.4-22.1,30.7c-5.2-3.1-13.3-0.6-22.1-30.7c-4.8-16.3,9.9-30.7,22.1-30.7
				C6644.4,698.4,6651.3,712.4,6654.3,729z"/>
			<polygon points="6624.3,712.6 6635.9,702.6 6640.4,707.6 6632.3,715 6634.8,723.5 6643.8,718.8 6654.3,743.6 6650.3,743.6 
				6642.3,729.3 6636.9,733.6 6646.8,748.4 6633.8,758.9 6629.3,753.1 6639.3,745.6 6633.3,736.5 6624.3,743.1 6610.4,721.2 
				6615.4,716.9 6625.9,733.1 6632.3,727.8 			"/>
			<g>
				<polygon class="st6" points="6504.7,655.3 6511.5,647.2 6491.8,643.6 6494.2,655.3 6483.8,649.4 6480.6,665.8 6493,664.1 
					6484.7,676.1 6504,676.1 6501.5,664.8 6513.5,673.9 6515.7,655.5 6502.7,658.1 				"/>
				<polygon points="6496.9,657.6 6496.9,648.4 6504.3,651 6499.2,658.2 6512.8,660.5 6509.4,667.4 6499.3,662.5 6498.3,673.2 
					6491.3,672.4 6495.8,662.9 6483.6,662.9 6485.2,655.2 6496.8,659 				"/>
			</g>
		</g>
		<g>
			<path class="st5" d="M6163.3,412.5l12.3-4.3l33.7,23.7v34.4l-28.1,24.7l-12.3-7.8C6181.3,478,6163.3,412.5,6163.3,412.5z"/>
			<path class="st1" d="M6025.1,942.7l9-19.6h-18V678.5c-3.3-11.8,0-23.7,0-23.7c19.1-7.5,37.1-14,37.1-14
				c-19.1-17.2-13.5-47.2-13.5-47.2c-3.3-16.1,9-21.5,9-21.5h21.4l33.7-102.1c0-11.8,28.1-27.9,28.1-27.9
				c-1.1-18.2,31.5-24.7,31.5-24.7c28.1,2.2,33.7,24.7,33.7,24.7c6.8,32.2-19.1,46.2-19.1,46.2c-37.1,0-40.5-11.8-40.5-11.8l-6.8-15
				c-20.2,19.3-46,113.8-46,113.8c16.9,5.4,21.7,23.7,21.7,23.7c4.1,20.4-20.6,39.7-20.6,39.7l10.1,14l24.6,8.6
				c14.7,71.9,0,254.6,0,254.6c-7.7,12.9-25.7,16.1-25.7,16.1l11.6,15L6025.1,942.7z"/>
		</g>
	</g>
	
		<image style="overflow:visible;enable-background:new    ;" width="2000" height="1333" xlink:href="../italian.png"  transform="matrix(0.7071 0 0 0.6055 6778.7524 141.2154)">
	</image>
	<path d="M7460.1,604.5c-9.7-8.9-31.1-1.9-31.1-1.9c-10.2,4.7-4.9,35.3-4.9,35.3c-2.4,7.4,6.3,28.3,6.3,28.3l-9.7,4.7l-7.3,8.5h-9.2
		c5.4-7.1,4.8-30.8,4.8-30.8c-3.7-19.5-35.3-19-35.3-19c1.5-15.8-17-24.2-17-24.2c-12.6-7-31.1,7.4-31.1,7.4
		c-6.3,15.3,0,39.4,0,39.4c0,5.6,6.3,7.9,6.3,7.9c-1.9,6,5.4,10.6,5.4,10.6l4.9,8.5c-15.1,3.6-32.6,21.4-32.6,21.4
		c-3.4,4-10.7,0-10.7,0c-6.8-5.2-11.7-13.5-11.7-13.5l-4.4-26c4.9-7-2.9-38.5-2.9-38.5c-9.2-6.5-31.8,1.9-31.8,1.9
		c-11.2-3.9-20.6,22.2-20.6,22.2v10.7v7.4l-1.2,41.8c-10,2.2-14.1,21.3-14.1,21.3c-8.9,16.7-6,58.9-6,58.9l-15.5,46.4
		c-8.8,21.8-7.3,87.2-7.3,87.2h25.2h57.4l32.2-6.2l112.7-12.9l91.7-10.6l-11.3-182.5C7473.2,686.2,7460.1,604.5,7460.1,604.5z"/>
	<polygon class="st5" points="7119.4,941.9 7119.4,931.1 7566.8,879.6 8192,925.5 8192,941.9 	"/>
	<g>
		<path class="st1" d="M7151.3,927.6l19-295.4c-8.8-6.2,0-11.2,0-11.2h5.8v-35.5h-12.4l3.6-40.4h16.7h11.7v39.7l-11.7,2.8l-19.6,340
			L7151.3,927.6L7151.3,927.6z"/>
		<path class="st5" d="M7184.1,545.1c-12.4-13.9-10.6-33.4-10.6-33.4h5.3v-14.6l5.3-2.8v-16h11.7c13.8,31.3-3.6,66.8-3.6,66.8
			L7184.1,545.1L7184.1,545.1z"/>
	</g>
	<path d="M8205.9,404.9h-31.5l-11.2-11.2c-6.7-9.1,0-15.3,0-15.3c15-12.5,9-62,9-62s6,6.2-0.7-3.5c-6.7-9.7-44.9-22.2-44.9-22.2
		c-10.5-4.8-43.4,10.4-43.4,10.4c-10.5,3.5-3.7,46.1-3.7,46.1l-2.1,12.3l6.5,6.2c-2.2,11.2,7.5,29.2,7.5,29.2
		c-1.5,7,28.4,18.1,28.4,18.1l-16.4,4.2l-13.5,29.9l-21.6,16.7v7.7l-7.5,16l-8.3,113.5h-12.7c4.5-6.2,9.7-18.1,9.7-18.1l-6-7.7
		c-6-41.1-50.8-24.3-50.8-24.3c-8.3,8.3-5.2,34.8-5.2,34.8c-3.7,6.2,9.7,25.1,9.7,25.1l3,9.7l-18.7,3.5l-10.5,7l-49.3-25.7l-5.2-9.1
		l-45.6-2.8c-9-10.4,0-31.3,0-31.3l4.5-7.7l3-23.7l-11.5-17.4c-13.2-10.4-40.9-4.8-40.9-4.8c-9.7,0.7-15.7,36.2-15.7,36.2v15.3l6,39
		l5.2,12.5l-21.6,19.5l-5.2,21.6l-25.4,5.6c-6.7-19.5-26.9-17.4-26.9-17.4c-17.2,2.8-14.2,22.2-14.2,22.2
		c-3.7,13.9,12.7,38.3,12.7,38.3l-0.7,12.5l-21.6,7v-16c-18.7-21.6-22.5-78.6-22.5-78.6c-5.2-23-56.8-22.2-56.8-22.2
		c-13.5-5.6-11.2-21.6-11.2-21.6c5.2-12.5-0.1-26.5-0.1-26.5c-5.8-32-35-25.1-35-25.1c-18.7-1.4-24.7,20.9-24.7,20.9
		c-3.7,8.3,12,30.7,12,30.7c-3.7,8.3,13.5,26.5,13.5,26.5l3.7,8.3l-29.8,17.4v37.6l-25.6-13.2c9-10.4,9-45.9,9-45.9
		c-3-25.1-46.8-24.3-46.8-24.3c9.4,28.4-9.4,64.2-9.4,64.2l8,13.5l-8,0.7c-3.6,4.5-5.5,33.7-5.5,33.7l-10.1,7.3
		c10.6,27.9-4.9,105.6-4.9,105.6c-1,32.2-11.4,45.4-11.4,45.4l-1.7,5.4l9.7,24.3l84.6-2.6h67.3l167.3,16.1l146,10.4l270,19.3V404.9
		H8205.9z"/>
	<g>
		<path class="st9" d="M7330.4,720.5c20.4,4.2,56.8,0,56.8,0c9.1,14.6-7.7,127-7.7,127c1.5,11.2-2.2,30.3-2.2,30.3
			c-4,4.2-5.8,17-5.8,17l-0.7,6.6l-78,12.5c-17.9,4.5-44.1-2.8-44.1-2.8c-2.2-4.8,10.6-14.6,10.6-14.6l25.5-2.8
			c9.8-1,37.5-33.8,37.5-33.8l2.2-23C7330.7,824.1,7330.4,720.5,7330.4,720.5z"/>
		<path class="st9" d="M7426.1,711.9c21.1-21.6,53.9-9.1,53.9-9.1c19,59.1-13.8,160.1-13.8,160.1l9.4,24.3
			c-10.2,15.3-84.5,16.7-84.5,16.7c-11.7-1.4-8.8-16-8.8-16c2.2-10.4,23.3-10.4,23.3-10.4l13.8-14.6
			C7437.7,823.1,7426.1,711.9,7426.1,711.9z"/>
		<path d="M7330.7,435.9c-18.6,26.1-27.3,86.7-27.3,86.7l-4.4,51.2l5.4,10.4c-20.8,45.9,26.3,144.1,26.3,144.1h20.8l41.5,6.2
			c21.9-12.5,7.7-41.7,7.7-41.7c14.2,29.2,30.6,20.9,30.6,20.9c17.5-11.5,52.4-7.3,52.4-7.3l9.8-7.3c-2.2-25.1,10.5-67.8,10.5-67.8
			c10.3-25.1,0-75.1,0-75.1c0.4-50.1-36.8-128.4-36.8-128.4l-10.9-19.9l10.9-4.2l9.8,16.7c38.2-4.2,104.9-59.5,104.9-59.5
			c1.1-24-29.5-46.9-29.5-46.9c-16.4-29.2-59-44.9-59-44.9c-13.1-13.5-63.4,5.2-63.4,5.2c-12.1-4.2,1.1-30.3,1.1-30.3
			c16.4-21.9,4.4-55.3,4.4-55.3c-20.8-23-82-14.6-82-14.6c-9.8,10.4-6.5,34.4-6.5,34.4c-2.2,8.3-3.3,15.6-3.3,15.6
			c-2.2,10.4,7.7,4.2,7.7,4.2c-5.4,18.8-2.2,34.4-2.2,34.4c-0.9,6.9,17.3,13.6,17.3,13.6l-3.9,10c-12.9-7.1-39.9,2.6-39.9,2.6
			l-6.3,0.2l-9.7,7.9c-3.1,1.9-12.2-5.4-12.2-5.4c-6.3-4.4-33-2.1-33-2.1c-3.1-4.2-19.5-8.1-19.5-8.1c-7.3-8.6-26.5-19.5-26.5-19.5
			l-6-1.4c-5.6-8.9-37.9-33.2-37.9-33.2l-14.1-15.8c3.6-7.4,7.3-16.9,7.3-16.9c-0.2-3.7-8.8,6.8-8.8,6.8c-3.4-8.3-8-19.7-8-19.7
			c-4.6-2.1-2.7,3.3-2.7,3.3c-1.3,2.1-3.9-4.8-3.9-4.8c-2.2-1.2-2.9,2.6-2.9,2.6c-2.4-0.5-4.4,1.2-4.4,1.2c-5.6,0.2-3.4,3-3.4,3
			c-3.6,0.5-0.4,7.7-0.4,7.7c-0.8,4.2,6.5,20.7,6.5,20.7c0.7,3,13.6,24.6,13.6,24.6c-3.6,1.9-6.8,24.2-6.8,24.2
			c5.1,17.2,50.8,45.5,50.8,45.5l20.2,25.3c17.5,17.9,102.2,31.8,102.2,31.8c-4.4,13.7,4.9,48.2,4.9,48.2c0,3.9,7.3,5.1,7.3,5.1
			L7330.7,435.9z"/>
	</g>
</g>
</svg>
