<svg xmlns="http://www.w3.org/2000/svg" viewBox="0 0 42.37 12.5"><title>Airplane</title><g id="Layer_2" data-name="Layer 2"><g id="Layer_1-2" data-name="Layer 1"><path id="Air2" d="M29,10l-2.79.33-4.52.7-7,1.46L10,12l4.67-1.23,5.66-1.43-.54-.14-2.39-.25L12.24,8,8,7.64l-4.08-.9-.35-.43-1.49.31-1,.21L.3,6.75,0,6.56,2.44,5.8l-.11-.48L2.18,4.6V3.35l.15-1.79L2.67.74l.7-.4L3.82,0l.84.32.4.67L6.41,2.46l1,1.29.65.61,2.19-.7,1,0-.2.29-1.44.55,1.05,0,2-.17,2-.42,3-.62L19.49,3l1.19-.49,1.74-.37,1.39.46,1.34.22,1.15.51,1.29,0,1.89.36,2.14.3L33.9,2.47l2-.41L38,2.12,37.39,3,36.1,4.27l1.29,0,.79.08.8.09.35.43.35.42,1.09.28,1.1.27.4.67.1.48-.6.87-1,.21-1.25.26-.39.58-.4.59s-1.54.07-2,.17-3.63,0-3.88.06S30,10,30,10Z"/></g></g></svg>