<svg id="Layer_1" data-name="Layer 1" xmlns="http://www.w3.org/2000/svg" viewBox="0 0 324.25 49.84"><defs><style>.cls-1,.cls-2{fill:#fff;}.cls-1{opacity:0.5;}.cls-2{stroke:#000;stroke-miterlimit:10;}.cls-3{font-size:12.63px;}.cls-3,.cls-4,.cls-5{font-family:AvenirNext-Medium, Avenir Next;}.cls-4,.cls-5{font-size:38.64px;}.cls-4{letter-spacing:-0.03em;}.cls-5{letter-spacing:-0.03em;}</style></defs><title>button1</title><rect class="cls-1" x="3.11" y="6.18" width="35.24" height="35.24" rx="12" ry="12"/><rect class="cls-1" x="1.55" y="4.27" width="35.24" height="35.24" rx="12" ry="12"/><rect class="cls-1" y="6.18" width="35.24" height="35.24" rx="12" ry="12"/><rect class="cls-2" x="1.55" y="6.18" width="35.24" height="35.24" rx="12" ry="12"/><text class="cls-3" transform="translate(15.42 26.44)">1</text><rect class="cls-1" x="75.06" y="6.18" width="35.24" height="35.24" rx="12" ry="12"/><rect class="cls-1" x="73.51" y="4.27" width="35.24" height="35.24" rx="12" ry="12"/><rect class="cls-1" x="71.95" y="6.18" width="35.24" height="35.24" rx="12" ry="12"/><rect class="cls-2" x="73.51" y="6.18" width="35.24" height="35.24" rx="12" ry="12"/><text class="cls-3" transform="translate(87.37 26.44)">2</text><rect class="cls-1" x="148.89" y="5.23" width="35.24" height="35.24" rx="12" ry="12"/><rect class="cls-1" x="147.33" y="3.31" width="35.24" height="35.24" rx="12" ry="12"/><rect class="cls-1" x="145.78" y="5.23" width="35.24" height="35.24" rx="12" ry="12"/><rect class="cls-2" x="147.33" y="5.23" width="35.24" height="35.24" rx="12" ry="12"/><text class="cls-3" transform="translate(161.19 25.48)">3</text><rect class="cls-1" x="218.73" y="8.1" width="35.24" height="35.24" rx="12" ry="12"/><rect class="cls-1" x="217.18" y="6.18" width="35.24" height="35.24" rx="12" ry="12"/><rect class="cls-1" x="215.62" y="8.1" width="35.24" height="35.24" rx="12" ry="12"/><rect class="cls-2" x="217.18" y="8.1" width="35.24" height="35.24" rx="12" ry="12"/><text class="cls-3" transform="translate(231.04 28.36)">4</text><rect class="cls-1" x="289.01" y="8.82" width="35.24" height="35.24" rx="12" ry="12"/><rect class="cls-1" x="287.46" y="6.91" width="35.24" height="35.24" rx="12" ry="12"/><rect class="cls-1" x="285.9" y="8.82" width="35.24" height="35.24" rx="12" ry="12"/><rect class="cls-2" x="287.46" y="8.82" width="35.24" height="35.24" rx="12" ry="12"/><text class="cls-3" transform="translate(301.32 29.08)">5</text><text class="cls-4" transform="translate(48.75 32.99)">›</text><text class="cls-4" transform="translate(121.27 32.99)">›</text><text class="cls-5" transform="translate(196.67 32.99)">›</text><text class="cls-5" transform="translate(263.21 32.99)">›</text></svg>