<?xml version="1.0" encoding="utf-8"?>
<!-- Generator: Adobe Illustrator 22.1.0, SVG Export Plug-In . SVG Version: 6.00 Build 0)  -->
<svg version="1.1" id="Layer_1" xmlns="http://www.w3.org/2000/svg" xmlns:xlink="http://www.w3.org/1999/xlink" x="0px" y="0px"
	 viewBox="0 0 3732 1125.1" style="enable-background:new 0 0 3732 1125.1;" xml:space="preserve">
<style type="text/css">
	.st0{fill:#FFFFFF;}
	.st1{fill:#009246;}
	.st2{fill:#CE2B37;}
	.st3{fill:#4B61D1;}
	.st4{fill:#D2232C;}
	.st5{fill:#754C24;}
	.st6{fill:#4D4D4D;}
	.st7{fill:#808080;}
	.st8{fill:#DF000E;}
	.st9{fill:#FF0000;}
</style>
<g>
	<g>
		<rect class="st0" width="1876.1" height="1125.1"/>
		<g>
			<polygon class="st1" points="587.3,1143.2 -49.4,1150.4 -35.4,-3.8 601.3,-11 			"/>
			<polygon class="st0" points="1225.4,1136.1 588.7,1143.2 602.8,-11 1239.4,-18.1 			"/>
			<polygon class="st2" points="1862.1,1128.9 1225.4,1136.1 1239.4,-18.1 1876.1,-25.3 			"/>
			<path class="st3" d="M614.3,279.8l606.4-6.8c-21.8,15.8-25.2,61.3-25.2,61.3l-5.2,429.9c-11,71.5-97.4,75.1-97.4,75.1L940.2,841
				c-23.1,8.1-27.6,22.4-27.6,22.4c-7-19.4-32.8-24.3-32.8-24.3l-171.4,1.9c-53.1-16.3-74.1-66.7-74.1-66.7l5.5-449.4
				C642.8,306.8,614.3,279.8,614.3,279.8z"/>
			<path class="st0" d="M711.9,334.3l424.9-4.8l-4.9,406.5c-4.8,39-40.8,39.4-40.8,39.4L954.3,777c-30.3,1.6-33.5,16-33.5,16
				c-18.3-18-47.1-16.4-47.1-16.4l-138.3,1.6C702.4,763,707,740.8,707,740.8L711.9,334.3z"/>
			<polygon class="st4" points="884.6,519.6 707.4,521.6 709.7,332 886.9,330 			"/>
			<polygon class="st4" points="1134.6,519.2 957.4,521.2 959.7,331.5 1136.9,329.5 			"/>
			<path class="st4" d="M705.9,587.8l-1.8,151.5c2.5,32.4,29.8,39.9,29.8,39.9l148.3-1.7l2.3-191.8L705.9,587.8z"/>
			<path class="st4" d="M1134.5,582.9l-1.8,151.5c-3.3,32.5-30.7,40.6-30.7,40.6l-148.3,1.7l2.3-191.8L1134.5,582.9z"/>
		</g>
		<path d="M797.4,658.9c-13.4-12.7-42.7-2.7-42.7-2.7c-14,6.7-6.7,50.7-6.7,50.7c-3.3,10.7,8.7,40.7,8.7,40.7l-13.3,6.7l-10,12.2
			h-12.7c7.3-10.2,6.5-44.2,6.5-44.2c-5.1-28-48.5-27.3-48.5-27.3c2-22.7-23.3-34.7-23.3-34.7c-17.3-10-42.7,10.7-42.7,10.7
			c-8.7,22,0,56.7,0,56.7c0,8,8.7,11.3,8.7,11.3c-2.7,8.7,7.3,15.3,7.3,15.3l6.7,12.2c-20.7,5.2-44.7,30.7-44.7,30.7
			c-4.7,5.8-14.7,0-14.7,0c-9.3-7.5-16-19.5-16-19.5l-6-37.3c6.7-10-4-55.3-4-55.3c-12.7-9.3-43.7,2.7-43.7,2.7
			c-15.3-5.7-28.3,32-28.3,32v15.3v10.7l-1.6,60.1c-13.7,3.2-19.4,30.6-19.4,30.6c-12.3,24-8.3,84.7-8.3,84.7l-21.3,66.7
			c-12,31.3-10,125.3-10,125.3H452h78.7l44.2-9l154.7-18.6l125.9-15.2L840,808.2C815.3,776.2,797.4,658.9,797.4,658.9z"/>
		<g>
			<path class="st5" d="M698.5,799c28,6,78,0,78,0C789,820,766,981.5,766,981.5c2,16-3,43.5-3,43.5c-5.5,6-8,24.5-8,24.5l-1,9.5
				l-107,18c-24.5,6.5-60.5-4-60.5-4c-3-7,14.5-21,14.5-21l35-4c13.5-1.5,51.5-48.5,51.5-48.5l3-33C699,948,698.5,799,698.5,799z"/>
			<path class="st5" d="M829.9,786.6c29-31,74-13,74-13c26,85-19,230-19,230l13,35c-14,22-116,24-116,24c-16-2-12-23-12-23
				c3-15,32-15,32-15l19-21C845.9,946.6,829.9,786.6,829.9,786.6z"/>
			<path d="M699,390.2c-25.5,37.5-37.5,124.5-37.5,124.5l-6,73.5l7.5,15c-28.5,66,36,207,36,207h28.5l57,9c30-18,10.5-60,10.5-60
				c19.5,42,42,30,42,30c24-16.5,72-10.5,72-10.5l13.5-10.5c-3-36,14.4-97.5,14.4-97.5c14.1-36,0-108,0-108
				c0.6-72-50.4-184.5-50.4-184.5l-15-28.5l15-6l13.5,24c52.5-6,144-85.5,144-85.5c1.5-34.5-40.5-67.5-40.5-67.5
				c-22.5-42-81-64.5-81-64.5c-18-19.5-87,7.5-87,7.5c-16.5-6,1.5-43.5,1.5-43.5c22.5-31.5,6-79.5,6-79.5
				c-28.5-33-112.5-21-112.5-21c-13.5,15-9,49.5-9,49.5c-3,12-4.5,22.5-4.5,22.5c-3,15,10.5,6,10.5,6c-7.5,27-3,49.5-3,49.5
				c-1.2,9.9,23.8,19.6,23.8,19.6l-5.3,14.3c-17.7-10.3-54.7,3.7-54.7,3.7l-8.7,0.3l-13.3,11.3c-4.3,2.7-16.7-7.7-16.7-7.7
				c-8.7-6.3-45.3-3-45.3-3c-4.3-6-26.7-11.7-26.7-11.7c-10-12.3-36.3-28-36.3-28l-8.3-2c-7.7-12.7-52-47.7-52-47.7l-19.3-22.7
				c5-10.7,10-24.3,10-24.3c-0.3-5.3-12,9.7-12,9.7c-4.7-12-11-28.3-11-28.3c-6.3-3-3.7,4.7-3.7,4.7c-1.7,3-5.3-7-5.3-7
				c-3-1.7-4,3.7-4,3.7c-3.3-0.7-6,1.7-6,1.7c-7.7,0.3-4.7,4.3-4.7,4.3c-5,0.7-0.6,11-0.6,11c-1.1,6,8.9,29.7,8.9,29.7
				c1,4.3,18.7,35.3,18.7,35.3c-5,2.7-9.3,34.7-9.3,34.7c7,24.7,69.7,65.3,69.7,65.3l27.7,36.3c24,25.7,140.3,45.7,140.3,45.7
				c-6,19.7,6.7,69.3,6.7,69.3c0,5.7,10,7.3,10,7.3L699,390.2z"/>
		</g>
		<polygon class="st6" points="409,1121.4 409,1105.9 1023,1031.9 1881.1,1097.9 1881.1,1121.4 		"/>
		<g>
			<path class="st7" d="M316,1116.4l26-424.5c-12-9,0-16,0-16h8v-51h-17l5-58h23h16v57l-16,4l-27,488.5H316z"/>
			<path class="st6" d="M361,566.9c-17-20-14.5-48-14.5-48h7.2v-21l7.3-4v-23h16c19,45-5,96-5,96H361z"/>
		</g>
		<path d="M1876.1,350.9H1834l-15-16c-9-13,0-22,0-22c20-18,12-89,12-89s8,9-1-5s-60-32-60-32c-14-7-58,15-58,15
			c-14,5-5,66.3-5,66.3l-2.8,17.7l8.8,9c-3,16,10,42,10,42c-2,10,38,26,38,26l-22,6l-18,43l-29,24v11l-10,23l-11,163h-17
			c6-9,13-26,13-26l-8-11c-8-59-68-35-68-35c-11,12-7,50-7,50c-5,9,13,36,13,36l4,14l-25,5l-14,10l-66-37l-7-13l-61-4
			c-12-15,0-45,0-45l6-11l4-34l-15.3-25c-17.7-15-54.7-7-54.7-7c-13,1-21,52-21,52v22l8,56l7,18l-29,28l-7,31l-34,8
			c-9-28-36-25-36-25c-23,4-19,32-19,32c-5,20,17,55,17,55l-1,18l-29,10v-23c-25-31-30-113-30-113c-7-33-76-32-76-32
			c-18-8-15-31-15-31c7-18-0.2-38-0.2-38c-7.8-46-46.8-36-46.8-36c-25-2-33,30-33,30c-5,12,16,44,16,44c-5,12,18,38,18,38l5,12
			l-39.8,25v54l-34.2-19c12-15,12-66,12-66c-4-36-62.6-34.8-62.6-34.8c12.6,40.8-12.5,92.3-12.5,92.3l10.7,19.5l-10.7,1
			c-4.9,6.4-7.4,48.4-7.4,48.4l-13.5,10.5c14.1,40.1-6.6,151.8-6.6,151.8c-1.3,46.3-15.2,65.2-15.2,65.2l-2.3,7.8l13,35l113.1-3.7
			h90l223.8,23.2l195.3,15l361.1,27.8V350.9z"/>
	</g>
	<g>
		<rect x="1853.9" y="4.6" class="st8" width="1878.1" height="1116"/>
		<circle class="st0" cx="2793" cy="562.6" r="461"/>
		<polygon points="2707.9,562.4 2543.1,427.5 2792.6,221.1 2875.8,293 2709.5,427.5 2792.6,494 2957.3,356.8 3208.5,562.4 
			3122.9,632.5 2955.9,494 2875.8,562.4 3040.1,699 2792.6,904 2706.1,833.4 2875.8,699 2792.6,632.5 2627.3,766.9 2377.5,562.4 
			2460.3,492.6 2627.3,631.1 		"/>
	</g>
	<g>
		<path d="M3360.5,467v20l28,37l111,46l13,13c64,131,45,378,45,378l-62,155h-170h-314l40-132l38-102l16-54c-19-21-16-132-16-132
			l-237-65c-34-14-35-80-35-80l14-216h44c14-27-1-106-1-106c-4-16,15-19,15-19l43-21c19,2,13,23,13,23l17-3c16,9,5,38,5,38l-5,22
			c1,25-30,45-30,45l-3,20l14,5l-4,104l-8,31c0,27,26,62,26,62c54-7,132,24,132,24l45-13l54.3,2l25.7-16l6-22
			c-31-13-31.7-50-31.7-50c6.7-21-10.3-59-10.3-59c-6-10-1-21-1-21c-6-8-5-22-5-22l8-6l-1-19l37-56c-1-16,38-33,38-33
			c68-11,117,47,117,47c32,47,27,114,27,114C3390.5,426,3360.5,467,3360.5,467z"/>
		<path class="st9" d="M3409.5,750c21-8,82,0,82,0l66.3,48l2.3,111c-28.6-33-98.6-54-98.6-54c-23-7-68,7-68,7L3409.5,750z"/>
		<path class="st0" d="M3537.2,820.4c7.3,42.8-9.8,55.1-29.5,42.8c-7-4.4-17.8-0.8-29.5-42.8c-6.4-22.7,13.2-42.8,29.5-42.8
			S3533.2,797.1,3537.2,820.4z"/>
		<polygon points="3497.2,797.4 3512.6,783.4 3518.6,790.4 3507.9,800.7 3511.2,812.7 3523.2,806 3537.2,840.7 3531.9,840.7 
			3521.2,820.7 3513.9,826.7 3527.2,847.4 3509.9,862 3503.9,854 3517.2,843.4 3509.2,830.7 3497.2,840 3478.6,809.4 3485.2,803.4 
			3499.2,826 3507.9,818.7 		"/>
		<g>
			<polygon class="st0" points="3337.6,717.4 3346.6,706.1 3320.3,701.1 3323.6,717.4 3309.6,709.2 3305.3,732.1 3321.9,729.7 
				3310.9,746.4 3336.6,746.4 3333.3,730.7 3349.3,743.4 3352.3,717.7 3334.9,721.4 			"/>
			<polygon points="3327.1,720.6 3327.1,707.7 3337,711.4 3330.2,721.5 3348.3,724.7 3343.8,734.3 3330.4,727.4 3329.1,742.4 
				3319.6,741.3 3325.7,728 3309.4,728 3311.6,717.2 3327,722.6 			"/>
		</g>
	</g>
	<g>
		<path class="st6" d="M2901.8,376.2l16.5-6l45,33v48l-37.5,34.5l-16.4-10.9C2925.8,467.7,2901.8,376.2,2901.8,376.2z"/>
		<path class="st7" d="M2717.3,1116.6l12-27.3h-24V747.7c-4.5-16.5,0-33,0-33c25.5-10.5,49.5-19.5,49.5-19.5c-25.5-24-18-66-18-66
			c-4.5-22.5,12-30,12-30h28.5l45-142.5c0-16.5,37.5-39,37.5-39c-1.5-25.5,42-34.5,42-34.5c37.5,3,45,34.5,45,34.5
			c9,45-25.5,64.5-25.5,64.5c-49.5,0-54-16.5-54-16.5l-9-21c-27,27-61.5,159-61.5,159c22.5,7.5,29,33,29,33
			c5.5,28.5-27.5,55.5-27.5,55.5l13.5,19.5l32.8,12c19.7,100.5,0,355.5,0,355.5c-10.3,18-34.3,22.5-34.3,22.5l15.5,21L2717.3,1116.6
			z"/>
	</g>
</g>
</svg>
